<?xml version="1.0" standalone="no"?>
<!DOCTYPE svg PUBLIC "-//W3C//DTD SVG 20010904//EN"
 "http://www.w3.org/TR/2001/REC-SVG-20010904/DTD/svg10.dtd">
<svg version="1.0" xmlns="http://www.w3.org/2000/svg"
 width="800.000000pt" height="800.000000pt" viewBox="0 0 800.000000 800.000000"
 preserveAspectRatio="xMidYMid meet">
<metadata>
Created by potrace 1.16, written by Peter Selinger 2001-2019
</metadata>
<g transform="translate(0.000000,800.000000) scale(0.100000,-0.100000)"
fill="#ffffff" stroke="none">
<path d="M3810 7604 c-19 -2 -91 -9 -160 -14 -401 -34 -870 -172 -1239 -367
-329 -173 -577 -357 -857 -637 -281 -281 -482 -558 -670 -921 -210 -407 -349
-870 -394 -1314 -13 -132 -13 -517 0 -652 62 -642 290 -1259 657 -1787 218
-314 534 -634 836 -850 822 -586 1822 -772 2802 -522 644 165 1230 517 1681
1010 402 439 713 1030 849 1611 78 334 100 526 100 864 -1 229 -4 294 -23 425
-64 432 -173 788 -352 1155 -196 399 -382 669 -668 966 -194 202 -343 326
-567 476 -443 295 -928 476 -1450 539 -117 14 -476 26 -545 18z m405 -49 c289
-15 664 -102 975 -226 556 -223 1079 -631 1447 -1129 394 -534 647 -1173 723
-1825 21 -180 24 -468 6 -660 -45 -478 -153 -864 -360 -1290 -268 -550 -631
-983 -1115 -1328 -754 -539 -1708 -740 -2630 -556 -272 54 -553 154 -834 295
-195 99 -521 318 -531 358 -3 13 -6 124 -7 247 0 125 -7 277 -15 344 -33 277
-46 563 -41 930 2 198 7 368 12 378 6 16 89 61 148 80 33 12 17 24 -38 31 -40
4 -63 2 -85 -9 l-29 -15 -10 53 c-12 55 -9 171 9 352 6 61 11 117 12 125 0 8
-7 58 -17 110 -12 66 -15 121 -11 180 3 47 8 130 12 185 5 75 10 103 23 113
13 11 14 14 2 21 -12 8 -12 14 -1 40 9 24 10 41 2 74 -16 63 -24 237 -13 276
24 79 98 108 143 56 24 -28 43 -26 91 7 37 26 27 37 -34 36 -56 -2 -93 22 -71
44 9 9 15 8 25 -6 11 -15 17 -16 35 -7 11 6 34 11 51 11 16 0 34 6 38 13 4 7
21 21 36 30 23 15 26 21 16 33 -8 10 -8 14 0 14 16 0 91 70 91 86 0 37 -53 19
-108 -37 -20 -20 -37 -29 -47 -25 -13 5 -7 14 29 46 26 21 52 43 59 47 6 4 17
17 23 28 14 25 44 32 44 11 0 -24 43 -20 59 6 13 21 14 21 27 4 16 -22 47 -14
42 11 -4 28 11 43 43 43 19 0 29 5 29 15 0 8 -3 15 -7 15 -5 0 -14 4 -22 9
-12 8 -11 12 4 27 23 24 75 28 75 7 0 -11 5 -13 18 -7 9 4 44 17 78 28 34 12
68 27 77 34 29 25 89 33 109 15 15 -14 19 -13 43 5 27 21 43 20 80 -5 11 -7
28 -13 38 -13 25 0 34 -30 13 -42 -16 -9 -15 -12 9 -34 14 -13 37 -27 51 -30
13 -3 28 -12 32 -20 4 -8 31 -15 68 -17 76 -5 95 -15 68 -34 -16 -11 -16 -15
-5 -22 8 -5 20 -7 28 -4 7 3 20 0 29 -7 17 -15 28 -7 48 32 7 12 19 21 27 19
41 -12 63 -5 82 26 16 28 17 38 7 69 -7 20 -24 43 -41 53 -32 19 -27 32 19 46
26 8 62 72 62 112 0 47 -27 76 -66 71 -39 -5 -45 8 -10 22 33 12 37 22 24 58
-9 24 -9 34 4 54 44 66 81 346 60 453 l-8 40 -46 -3 c-41 -3 -48 0 -67 27 -28
39 -46 39 -60 0 -6 -17 -15 -28 -21 -24 -6 4 -17 2 -24 -4 -9 -8 -22 -8 -40
-1 -29 11 -32 20 -14 38 9 9 8 15 -8 27 -40 31 -100 32 -88 0 4 -9 1 -15 -7
-15 -7 0 -20 -7 -29 -15 -26 -23 -53 -9 -45 24 4 14 7 30 8 36 3 15 -62 18
-80 4 -8 -7 -33 -15 -56 -18 -33 -5 -45 -12 -55 -33 -16 -33 -29 -36 -34 -7
-3 19 -7 16 -37 -21 -19 -23 -35 -52 -36 -64 -1 -11 -3 -24 -4 -28 0 -4 -10
-10 -21 -13 -13 -4 -20 -15 -20 -31 0 -20 -5 -24 -28 -24 -16 0 -37 -9 -47
-20 -22 -24 -35 -26 -35 -5 0 13 -7 15 -35 9 -35 -6 -36 -6 -29 20 5 22 3 26
-15 26 -29 0 -28 36 2 44 21 6 21 7 3 21 -17 13 -18 15 -2 21 9 4 20 4 23 0 3
-3 21 6 40 20 28 21 34 23 39 10 9 -23 27 -20 95 15 65 32 129 93 129 121 0 9
-16 30 -35 46 -32 26 -34 30 -20 42 11 9 14 22 10 41 -4 18 -1 37 9 51 25 35
19 53 -30 94 -57 48 -76 49 -90 4 -14 -42 -27 -47 -60 -25 -24 15 -26 21 -20
63 3 26 2 52 -2 57 -17 25 -67 55 -90 55 -14 0 -34 8 -44 17 -17 16 -19 15
-34 -5 -10 -15 -30 -23 -64 -28 -44 -6 -50 -9 -50 -30 0 -27 -5 -29 -40 -10
-21 12 -29 12 -53 -1 -25 -12 -28 -19 -22 -41 3 -15 8 -42 10 -60 4 -30 1 -35
-28 -47 -38 -16 -54 -9 -33 14 11 12 13 20 5 28 -7 7 -5 27 6 67 9 31 14 64
11 73 -6 14 -9 13 -29 -6 -13 -11 -26 -21 -29 -21 -13 0 -17 64 -6 78 7 8 18
33 24 56 6 23 13 47 15 54 2 8 -4 19 -13 25 -14 9 -25 5 -58 -22 -40 -32 -42
-32 -47 -12 -6 25 -7 25 -39 5 -13 -9 -27 -15 -29 -12 -3 3 6 11 20 18 30 16
32 27 4 35 -18 6 -11 14 51 60 117 84 304 198 453 273 393 200 859 325 1313
351 135 8 199 8 429 -4z m-2421 -813 c-6 -4 -11 -14 -12 -22 0 -8 -4 -26 -8
-39 -6 -20 -4 -23 9 -18 22 8 22 -11 1 -35 -10 -10 -17 -30 -18 -45 -1 -28
-26 -46 -26 -19 0 8 -9 20 -20 26 -16 9 -18 15 -10 30 16 30 13 53 -7 46 -10
-3 6 17 36 44 30 27 57 47 60 44 3 -3 1 -8 -5 -12z m-184 -155 c0 -2 -10 -12
-22 -23 l-23 -19 19 23 c18 21 26 27 26 19z m712 -119 c6 -16 -1 -38 -12 -38
-11 0 -21 30 -14 41 8 13 21 11 26 -3z m-214 -65 c5 -11 5 -32 0 -50 -7 -26
-14 -33 -32 -33 -27 0 -40 23 -30 54 14 46 46 61 62 29z m-698 -36 c0 -2 -10
-12 -22 -23 l-23 -19 19 23 c18 21 26 27 26 19z m1220 -13 c0 -8 -4 -12 -10
-9 -5 3 -10 10 -10 16 0 5 5 9 10 9 6 0 10 -7 10 -16z m-108 -41 c3 -25 7 -28
36 -25 17 2 32 0 32 -3 0 -12 -63 -95 -72 -95 -4 0 -8 22 -8 48 0 26 -5 53
-11 59 -13 13 -5 43 10 43 5 0 11 -12 13 -27z m-792 -24 c0 -5 -7 -9 -15 -9
-9 0 -15 9 -15 21 0 18 2 19 15 9 8 -7 15 -16 15 -21z m-438 -71 c-7 -7 -12
-8 -12 -2 0 14 12 26 19 19 2 -3 -1 -11 -7 -17z m1076 -30 c-6 -18 -28 -21
-28 -4 0 9 7 16 16 16 9 0 14 -5 12 -12z m-1127 -65 c-11 -21 -20 -34 -21 -30
0 14 32 78 37 73 2 -2 -5 -21 -16 -43z m779 -2 c21 -39 9 -52 -25 -27 -11 8
-16 19 -12 30 9 22 24 20 37 -3z m175 -71 c-5 -8 -11 -8 -17 -2 -6 6 -7 16 -3
22 5 8 11 8 17 2 6 -6 7 -16 3 -22z m-1056 -75 c-36 -50 -75 -66 -43 -17 71
109 69 107 72 84 2 -13 -10 -41 -29 -67z m542 26 c-6 -10 -17 -23 -25 -30 -25
-21 -30 8 -6 34 25 27 45 24 31 -4z m35 -102 c10 -17 -13 -36 -27 -22 -12 12
-4 33 11 33 5 0 12 -5 16 -11z m314 -26 c0 -10 -32 -43 -42 -43 -15 0 -8 29
10 39 20 12 32 14 32 4z m-145 -24 c-9 -13 4 -49 17 -49 16 0 69 -61 62 -72
-4 -5 -16 -7 -27 -4 -12 3 -27 0 -34 -6 -18 -14 -69 30 -53 46 5 5 10 29 10
51 0 23 3 45 6 48 10 9 25 -3 19 -14z m-85 -5 c0 -23 -20 -55 -31 -49 -13 9
-11 39 3 53 17 17 28 15 28 -4z m-110 -23 c0 -25 -20 -38 -31 -20 -15 23 -10
39 11 39 13 0 20 -7 20 -19z m-680 -26 c0 -8 -4 -15 -10 -15 -5 0 -7 7 -4 15
4 8 8 15 10 15 2 0 4 -7 4 -15z m1233 -10 c-3 -8 -12 -15 -19 -15 -12 0 -12 4
-4 20 12 23 32 18 23 -5z m-783 5 c0 -5 -4 -10 -10 -10 -5 0 -10 5 -10 10 0 6
5 10 10 10 6 0 10 -4 10 -10z m-352 -42 c5 -7 13 -23 16 -35 11 -35 -23 -29
-83 14 -2 1 2 9 9 18 15 18 44 20 58 3z m82 2 c0 -5 -4 -10 -10 -10 -5 0 -10
5 -10 10 0 6 5 10 10 10 6 0 10 -4 10 -10z m-230 -47 c-28 -72 -90 -190 -90
-172 0 25 93 219 105 219 2 0 -5 -21 -15 -47z m773 21 c11 -3 17 -15 17 -35 0
-24 -7 -32 -50 -54 -41 -21 -53 -23 -69 -13 -15 9 -28 8 -63 -6 -51 -19 -73
-14 -82 17 -6 21 -8 21 -36 -12 -16 -19 -31 -33 -33 -30 -2 2 -8 16 -14 30
-11 25 -9 29 29 59 33 27 44 31 58 22 14 -9 20 -8 24 5 4 10 15 14 30 11 14
-3 29 -2 35 1 13 9 131 12 154 5z m481 0 c22 -8 20 -21 -4 -29 -11 -4 -18 -11
-15 -16 4 -5 0 -9 -8 -9 -19 0 -50 36 -42 49 7 12 44 14 69 5z m-914 -29 c10
-19 11 -28 2 -37 -8 -8 -14 -4 -22 16 -19 51 -4 66 20 21z m580 -96 c0 -37 -4
-49 -15 -49 -11 0 -15 11 -15 39 0 21 -3 54 -6 72 l-5 34 20 -24 c15 -17 21
-37 21 -72z m202 64 l-23 -16 22 -24 c17 -17 20 -26 12 -34 -15 -15 -41 -5
-50 18 -4 10 -13 23 -20 28 -27 20 -4 45 41 44 40 0 41 0 18 -16z m309 -62
c16 -16 29 -34 29 -40 0 -16 -48 -44 -63 -38 -20 7 -38 82 -24 96 17 17 26 14
58 -18z m-1046 -15 c14 -14 35 -26 47 -28 17 -2 23 -10 23 -28 0 -20 -4 -24
-23 -22 -16 2 -25 -4 -31 -21 -5 -13 -17 -27 -26 -31 -11 -4 -14 -12 -10 -27
7 -20 5 -21 -21 -15 -16 4 -30 12 -32 17 -2 5 -16 9 -30 9 -15 0 -32 4 -37 8
-14 10 -13 71 1 80 7 4 13 16 15 27 3 13 14 21 31 23 15 2 32 10 38 18 17 20
27 18 55 -10z m1733 -35 c3 -8 -1 -12 -9 -9 -7 2 -15 10 -17 17 -3 8 1 12 9 9
7 -2 15 -10 17 -17z m-998 -22 c16 -28 7 -44 -24 -47 -21 -1 -26 3 -26 21 0
23 17 47 32 47 4 0 12 -9 18 -21z m-956 -34 c-7 -16 -30 -20 -38 -6 -7 11 4
21 25 21 12 0 16 -5 13 -15z m-74 -25 c0 -5 -5 -10 -11 -10 -5 0 -7 5 -4 10 3
6 8 10 11 10 2 0 4 -4 4 -10z m50 -10 c0 -5 -4 -10 -10 -10 -5 0 -10 5 -10 10
0 6 5 10 10 10 6 0 10 -4 10 -10z m-180 -25 c30 -8 81 -15 113 -15 70 0 77
-19 17 -50 -45 -23 -53 -52 -19 -71 25 -13 69 5 69 27 0 17 84 54 120 54 15 0
33 -7 40 -15 7 -8 19 -15 26 -15 19 0 18 -16 -2 -24 -25 -10 -34 -7 -34 9 0
31 -37 13 -93 -43 -31 -32 -57 -63 -57 -70 0 -7 -21 -22 -47 -33 -35 -15 -44
-22 -35 -31 16 -16 15 -28 -1 -28 -7 0 -17 10 -22 22 -16 35 -42 46 -61 26
-16 -15 -20 -13 -66 38 -28 30 -56 54 -63 54 -7 0 -16 8 -20 18 -5 14 -9 11
-21 -17 -8 -19 -12 -42 -9 -53 4 -11 1 -18 -8 -18 -7 0 -18 -15 -24 -33 -9
-30 -8 -33 10 -33 14 1 23 -7 27 -24 5 -21 12 -25 39 -23 20 1 31 -3 28 -10
-4 -12 -60 -15 -107 -7 -22 5 -26 0 -40 -47 -17 -60 -34 -73 -19 -15 15 55 90
275 99 287 4 6 15 34 25 63 9 28 21 50 26 46 5 -3 5 -13 -1 -24 -15 -27 -13
-30 19 -30 39 0 49 -18 15 -26 -23 -6 -24 -8 -10 -16 12 -7 28 -5 51 6 18 9
41 16 51 16 16 0 16 1 -1 20 -10 11 -26 20 -36 20 -10 0 -21 5 -24 10 -3 6 -1
10 4 10 19 0 12 22 -9 27 -11 3 -20 12 -20 19 0 17 2 17 70 -1z m2005 -65 c-9
-14 -35 0 -35 19 0 10 3 21 7 24 9 9 36 -31 28 -43z m-461 -37 c-9 -36 -21
-50 -34 -37 -13 13 10 64 28 64 8 0 10 -9 6 -27z m164 0 c23 -3 42 -9 42 -14
0 -10 -90 -6 -108 5 -19 11 -14 29 6 21 9 -4 36 -10 60 -12z m449 -17 c-4 -9
-11 -16 -17 -16 -11 0 -14 33 -3 43 11 11 26 -10 20 -27z m-1363 2 c17 -25 13
-38 -13 -38 -12 0 -20 9 -23 25 -8 41 12 48 36 13z m-339 -47 c3 -5 1 -12 -5
-16 -5 -3 -10 1 -10 9 0 18 6 21 15 7z m-148 -77 c8 -21 -13 -42 -28 -27 -13
13 -5 43 11 43 6 0 13 -7 17 -16z m2053 -24 c0 -5 -4 -10 -10 -10 -5 0 -10 5
-10 10 0 6 5 10 10 10 6 0 10 -4 10 -10z m-1859 -29 c10 -17 28 -30 45 -34 18
-3 36 -17 46 -35 10 -16 38 -39 63 -51 44 -21 45 -22 39 -60 -4 -23 -1 -48 6
-61 l12 -23 19 24 19 24 0 -33 c0 -18 -5 -42 -11 -53 -8 -16 -6 -32 9 -72 30
-78 37 -147 34 -314 l-3 -153 -24 28 c-24 26 -25 27 -31 6 -4 -15 -11 -20 -25
-17 -26 7 -35 -21 -16 -51 9 -12 30 -29 47 -36 25 -10 30 -17 25 -34 -3 -12
-8 -36 -12 -54 l-6 -32 -33 37 c-18 21 -33 42 -34 47 0 4 -15 27 -32 49 -18
22 -47 61 -63 86 -35 54 -66 90 -117 142 -39 39 -46 65 -27 100 9 17 7 21 -10
26 -11 3 -17 11 -15 18 3 7 1 16 -5 20 -7 4 -9 22 -5 45 6 36 4 40 -20 51 -20
9 -32 9 -52 0 -30 -13 -44 -7 -44 19 0 15 11 23 45 31 43 11 45 13 45 49 0 55
-8 70 -39 70 -14 0 -35 7 -45 15 -11 8 -29 15 -41 15 -26 0 -54 49 -34 60 18
12 1 30 -29 30 l-27 1 25 14 c34 19 70 19 70 0 0 -9 8 -19 18 -22 22 -8 67
-43 56 -43 -5 0 4 -7 20 -15 36 -19 50 -19 43 0 -4 9 5 20 25 30 39 19 38 19
35 -7 -1 -14 4 -23 16 -26 10 -2 17 3 17 13 0 8 12 20 26 25 27 11 25 25 -8
48 -10 7 -25 29 -33 48 -8 19 -21 34 -29 34 -24 0 -19 25 7 38 34 16 41 14 58
-17z m537 23 c17 -3 33 -13 36 -21 5 -12 -1 -14 -36 -8 -51 9 -60 13 -53 26 7
11 13 11 53 3z m80 -52 c2 -7 -3 -12 -12 -12 -9 0 -16 7 -16 16 0 17 22 14 28
-4z m-765 -9 c12 -7 -13 -33 -32 -33 -10 0 -28 12 -42 26 l-24 26 45 -7 c25
-4 49 -9 53 -12z m-183 -7 c0 -11 -19 -15 -25 -6 -3 5 1 10 9 10 9 0 16 -2 16
-4z m725 -14 c0 -18 -20 -15 -23 4 -3 10 1 15 10 12 7 -3 13 -10 13 -16z m255
-13 c0 -5 -4 -9 -10 -9 -5 0 -10 7 -10 16 0 8 5 12 10 9 6 -3 10 -10 10 -16z
m-174 -1 c7 -10 -20 -38 -38 -38 -12 0 -10 24 4 38 15 15 25 15 34 0z m19 -97
c5 -17 4 -22 -6 -19 -8 3 -15 18 -17 34 -4 33 11 24 23 -15z m-926 -10 c11 -7
10 -14 -8 -40 -21 -29 -47 -41 -129 -57 -18 -4 -32 -10 -32 -14 0 -11 -30 -21
-41 -15 -5 3 -3 15 4 26 10 17 9 22 -5 30 -24 14 -23 29 3 29 15 0 19 5 15 15
-7 18 16 30 40 21 13 -5 14 -9 4 -22 -10 -11 -10 -18 -1 -27 9 -9 20 -3 49 26
37 37 71 47 101 28z m-342 -53 c-3 -8 -6 -5 -6 6 -1 11 2 17 5 13 3 -3 4 -12
1 -19z m1170 -9 c18 -18 25 -20 37 -10 20 16 33 -6 15 -24 -25 -24 -55 -26
-79 -7 -17 13 -21 24 -16 40 9 27 14 27 43 1z m238 11 c3 -5 1 -10 -4 -10 -6
0 -11 5 -11 10 0 6 2 10 4 10 3 0 8 -4 11 -10z m-1008 -56 c10 -26 -52 -71
-107 -77 -52 -6 -76 7 -38 22 14 5 35 23 48 40 17 24 29 31 56 31 23 0 37 -6
41 -16z m113 -23 c0 -43 -13 -58 -58 -67 -42 -8 -41 9 0 21 18 6 34 18 36 27
3 13 -1 16 -12 12 -19 -7 -22 16 -4 34 23 23 38 13 38 -27z m-370 -70 c0 -12
-20 -25 -27 -18 -7 7 6 27 18 27 5 0 9 -4 9 -9z m340 -43 c-1 -18 -29 -53 -36
-45 -4 3 1 18 10 32 18 28 26 32 26 13z m42 -100 c-15 -15 -26 -4 -18 18 5 13
9 15 18 6 9 -9 9 -15 0 -24z m-539 -38 c15 0 18 -5 13 -24 -3 -12 -3 -26 0
-29 11 -10 35 5 44 29 8 20 12 22 38 12 25 -10 36 -8 71 10 34 18 81 29 81 20
-1 -16 -29 -78 -30 -65 0 9 -4 17 -9 17 -12 0 -32 -26 -25 -33 12 -12 -9 -48
-32 -57 -33 -13 -30 -37 6 -45 17 -4 30 -13 30 -21 0 -19 -19 -18 -56 5 -44
27 -79 31 -78 9 3 -69 3 -68 35 -66 27 3 32 -1 44 -37 14 -41 56 -85 79 -85 7
0 21 9 30 19 10 10 33 22 53 26 42 8 67 29 59 51 -4 10 -13 13 -31 8 -20 -5
-25 -2 -25 13 0 10 -5 24 -12 31 -10 10 -8 19 5 41 9 16 19 50 21 75 3 25 8
50 11 56 10 17 25 11 25 -10 0 -24 20 -62 38 -73 8 -6 11 -20 6 -43 -9 -50 7
-64 70 -61 48 3 52 5 62 37 6 19 21 37 33 41 11 5 26 20 33 34 6 14 15 25 19
25 11 0 59 -71 59 -86 0 -6 16 -22 35 -35 19 -13 39 -36 44 -51 6 -16 14 -28
19 -28 5 0 32 -35 61 -77 99 -148 119 -178 141 -206 33 -42 52 -138 54 -270 1
-114 0 -119 -23 -136 -24 -18 -24 -20 -17 -132 5 -63 8 -157 7 -209 -1 -52 -1
-128 -1 -167 1 -40 -2 -73 -7 -73 -4 1 -26 14 -48 30 -22 16 -52 37 -66 46
-15 9 -34 30 -44 47 -10 17 -42 58 -71 92 -28 34 -60 77 -69 96 -20 39 -34 51
-53 44 -13 -5 -82 54 -82 70 0 16 33 45 52 45 11 0 32 9 46 20 26 21 26 21 4
27 -29 7 -28 21 2 33 35 13 50 85 24 117 -7 9 -16 10 -29 2 -16 -8 -21 -5 -29
16 -14 36 -13 38 10 32 29 -7 37 10 42 91 5 72 5 73 -23 87 -36 19 -58 19 -79
0 -16 -15 -18 -12 -29 28 -10 40 -13 44 -36 39 -14 -2 -25 -11 -25 -18 0 -8
-4 -14 -10 -14 -5 0 -10 13 -10 28 0 15 -5 33 -11 39 -14 14 -39 6 -39 -13 0
-16 -16 -19 -25 -4 -3 6 -17 7 -31 4 -17 -4 -31 -1 -44 11 -24 21 -47 14 -60
-20 -10 -26 -34 -25 -55 1 -5 7 -21 14 -35 16 -16 2 -24 9 -22 19 4 28 -36 59
-78 59 -51 0 -80 12 -126 52 l-37 33 7 -240 c3 -132 9 -263 12 -291 6 -45 9
-51 26 -46 19 5 19 3 4 -33 -14 -32 -14 -49 -6 -99 16 -91 16 -90 49 -65 19
14 27 27 24 40 -6 21 10 26 24 7 5 -7 18 -35 28 -63 10 -27 21 -54 25 -59 12
-13 33 4 22 17 -15 19 -23 65 -13 72 5 3 18 -8 27 -25 17 -28 22 -30 77 -30
32 0 66 -4 76 -9 10 -6 30 -12 45 -14 23 -3 33 -14 57 -62 16 -33 29 -67 29
-76 0 -30 12 -49 30 -49 10 0 23 -6 29 -14 34 -41 101 -14 101 42 0 41 -17 54
-47 35 -22 -15 -26 -15 -41 0 -15 16 -15 17 3 17 11 0 26 4 34 9 20 13 -2 39
-36 43 -15 2 -29 9 -31 17 -3 10 0 12 11 8 9 -3 30 -2 48 3 25 7 42 5 76 -10
41 -18 44 -22 41 -52 -3 -28 1 -34 37 -52 24 -13 41 -30 45 -46 6 -24 67 -80
184 -168 45 -34 56 -47 51 -62 -4 -14 -2 -20 9 -20 8 0 18 5 21 10 14 23 26 7
23 -32 -3 -39 -6 -43 -28 -42 -14 1 -33 4 -42 9 -34 14 -33 -24 1 -59 l32 -33
4 -274 c2 -151 9 -380 15 -509 10 -230 4 -530 -10 -530 -13 0 -239 254 -317
356 -198 260 -374 564 -493 854 -51 125 -141 389 -139 412 0 10 2 10 6 1 7
-19 43 -16 50 5 3 9 14 26 24 37 9 11 22 36 27 55 l9 35 11 -27 c6 -15 21 -32
32 -38 26 -14 66 -6 73 15 5 11 0 13 -23 8 -39 -7 -39 9 0 24 17 6 30 18 30
27 0 9 5 16 10 16 14 0 13 33 -2 48 -7 7 -25 12 -40 12 -15 0 -28 5 -28 11 0
6 -7 17 -15 25 -13 13 -18 13 -44 -1 -44 -22 -60 -19 -76 18 -21 51 -39 62
-68 42 -22 -14 -24 -21 -21 -71 5 -63 20 -96 64 -138 34 -33 34 -49 2 -54 -12
-2 -22 -11 -23 -20 -1 -40 -32 75 -64 242 -73 384 -89 729 -49 1070 6 49 8 52
30 48 18 -3 26 1 33 19 10 29 -1 63 -22 67 -11 2 -17 -6 -20 -30 -2 -18 -2 -6
0 27 6 73 9 79 36 60 12 -8 30 -15 40 -15z m486 -86 c-5 -7 -7 -23 -4 -37 7
-26 -5 -40 -27 -32 -17 7 -48 61 -48 84 0 15 5 16 44 7 33 -8 42 -13 35 -22z
m77 -1 c-10 -10 -19 5 -10 18 6 11 8 11 12 0 2 -7 1 -15 -2 -18z m459 -203 c3
-5 1 -10 -4 -10 -6 0 -11 5 -11 10 0 6 2 10 4 10 3 0 8 -4 11 -10z m-536 -379
c32 -17 34 -22 37 -75 l3 -56 -34 0 c-29 0 -36 4 -41 25 -3 14 -4 32 -1 40 4
8 0 27 -8 41 -13 26 -12 44 3 44 4 -1 22 -9 41 -19z m-399 -135 c0 -3 -4 -8
-10 -11 -5 -3 -10 -1 -10 4 0 6 5 11 10 11 6 0 10 -2 10 -4z m371 -99 c-8 -8
-11 -7 -11 4 0 20 13 34 18 19 3 -7 -1 -17 -7 -23z m-223 -16 c3 -8 -1 -12 -9
-9 -7 2 -15 10 -17 17 -3 8 1 12 9 9 7 -2 15 -10 17 -17z m86 -14 c9 -7 19
-26 22 -44 4 -27 2 -31 -23 -36 -44 -9 -73 49 -41 81 15 15 20 15 42 -1z
m-272 -34 c2 -16 8 -28 13 -29 6 0 22 -6 37 -12 15 -6 35 -9 43 -6 10 4 15 0
15 -15 0 -29 28 -38 45 -15 10 15 16 16 25 7 18 -17 -61 -67 -103 -65 -65 2
-101 11 -114 28 -19 25 -16 44 6 44 26 0 36 30 15 45 -10 7 -15 19 -11 29 10
25 25 19 29 -11z m496 -56 c28 -26 27 -45 -4 -82 -23 -28 -25 -29 -35 -12 -8
14 -14 16 -25 6 -11 -9 -21 -8 -46 3 -18 8 -44 19 -58 25 -24 10 -24 11 -5 19
11 4 34 23 52 42 28 30 36 33 65 27 18 -4 43 -16 56 -28z m-219 -52 c-7 -30
-93 -68 -112 -49 -11 12 77 71 96 64 10 -3 17 -10 16 -15z m-241 -258 c3 -21
0 -26 -12 -21 -19 7 -22 58 -3 52 6 -3 13 -17 15 -31z"/>
<path d="M4105 6535 c-65 -35 -279 -182 -398 -274 -54 -42 -114 -87 -133 -100
-32 -23 -48 -59 -21 -48 7 2 78 54 157 113 177 133 413 292 445 300 18 4 52
-11 137 -62 251 -150 663 -424 1248 -829 212 -147 460 -317 552 -378 l166
-112 7 -65 c7 -67 3 -233 -21 -795 -17 -424 -17 -425 0 -425 10 0 15 37 20
173 4 94 11 264 16 377 5 113 10 327 10 477 l0 272 -180 123 c-99 68 -280 192
-403 277 -987 683 -1477 1001 -1540 1001 -8 0 -35 -11 -62 -25z"/>
<path d="M3727 4316 c-72 -26 -107 -76 -107 -151 0 -83 32 -120 131 -150 92
-28 126 -46 138 -71 36 -80 -17 -154 -109 -154 -36 0 -48 6 -83 41 -38 37 -42
39 -69 28 -35 -14 -35 -23 -2 -67 52 -67 165 -92 249 -53 65 30 95 81 95 163
0 91 -43 135 -170 174 -51 16 -85 32 -95 46 -53 77 44 166 136 124 19 -9 41
-21 50 -27 19 -14 47 -6 56 16 9 25 -43 72 -92 84 -56 14 -81 13 -128 -3z"/>
<path d="M4240 4317 c-140 -39 -217 -157 -208 -316 12 -204 186 -328 370 -265
189 64 252 349 111 505 -65 71 -178 103 -273 76z m125 -68 c52 -14 126 -90
143 -145 49 -163 -79 -337 -227 -309 -84 16 -142 71 -175 169 -44 128 66 286
204 295 8 0 33 -4 55 -10z"/>
<path d="M2190 4021 l0 -301 35 0 35 0 0 222 c0 132 4 218 9 213 8 -9 41 -86
158 -370 23 -56 32 -65 60 -65 27 0 42 29 149 290 l59 145 5 -215 5 -215 27
-3 c45 -5 49 22 46 322 l-3 271 -44 0 -45 0 -95 -229 c-53 -126 -100 -228
-105 -228 -5 0 -53 103 -106 229 l-97 228 -46 3 -47 3 0 -300z"/>
<path d="M3061 4278 c-42 -99 -211 -536 -211 -547 0 -15 42 -14 63 2 9 6 32
55 52 107 49 130 133 338 143 357 8 14 31 -40 172 -402 27 -67 29 -70 64 -73
20 -2 36 1 36 7 0 6 -20 61 -45 123 -25 62 -75 192 -113 288 l-68 175 -37 3
c-35 3 -38 1 -56 -40z"/>
<path d="M3455 4310 c-3 -5 -5 -140 -4 -300 l2 -291 36 3 36 3 -1 155 c-1 85
-2 219 -3 298 l-1 142 -29 0 c-17 0 -32 -4 -36 -10z"/>
<path d="M4687 4314 c-4 -4 -7 -134 -7 -289 0 -304 1 -310 52 -303 l23 3 5
230 5 230 46 -75 c25 -41 83 -136 128 -210 101 -164 114 -180 158 -180 l33 0
1 108 c0 59 2 154 4 212 1 58 0 144 -3 193 l-5 87 -33 0 -34 0 -1 -237 c0
-157 -3 -233 -10 -223 -5 8 -70 114 -143 235 l-134 220 -39 3 c-21 2 -42 0
-46 -4z"/>
<path d="M6646 4000 c-35 -11 -73 -45 -94 -85 -21 -41 -20 -141 2 -182 23 -45
8 -43 -84 13 -103 61 -162 77 -297 78 -109 1 -112 0 -140 -26 -20 -19 -40 -28
-62 -28 -66 0 -142 -66 -161 -142 -6 -24 -13 -48 -15 -54 -2 -6 -17 -14 -33
-17 -89 -18 -135 -137 -53 -137 38 0 75 31 94 78 14 34 22 41 61 51 59 15 104
55 139 125 22 43 34 56 51 56 32 0 85 -38 121 -87 16 -23 38 -42 48 -42 24 -1
22 8 -21 64 -25 33 -57 59 -95 79 -79 40 -58 50 92 44 129 -6 149 -13 298 -93
79 -42 94 -55 104 -84 11 -33 9 -141 -7 -354 -6 -83 -8 -87 -28 -81 -44 13
-96 55 -122 100 l-27 46 32 29 c41 37 41 85 -1 108 -24 14 -28 14 -47 -3 -16
-14 -21 -31 -21 -67 l0 -48 -117 -69 c-132 -79 -160 -101 -169 -138 -10 -39
17 -67 169 -182 76 -57 143 -114 149 -127 6 -13 8 -35 4 -49 -8 -31 -50 -45
-236 -76 -171 -30 -362 -77 -428 -106 -30 -13 -56 -24 -58 -24 -2 0 -4 10 -4
23 0 15 12 32 33 47 77 56 224 178 269 223 35 35 48 56 48 77 0 85 -148 80
-242 -8 -58 -54 -128 -186 -135 -256 -6 -46 -6 -46 -162 -168 -191 -150 -368
-319 -406 -391 -32 -58 -39 -133 -14 -163 36 -44 38 -44 837 -44 623 0 762 2
771 13 6 8 8 17 5 20 -4 4 -348 4 -765 1 -873 -6 -829 -10 -829 74 0 62 31
111 136 218 71 73 399 344 415 344 16 0 15 -38 -2 -59 -27 -33 -26 -120 1
-149 26 -28 84 -44 117 -31 33 12 28 43 -22 127 -20 33 -34 65 -31 71 18 28
257 92 509 136 82 14 152 25 157 25 5 0 22 12 39 26 34 28 41 71 19 119 -7 15
-71 71 -142 125 -72 53 -142 109 -155 123 -22 24 -23 28 -9 49 17 25 231 158
254 158 8 0 14 -4 14 -8 0 -5 13 -29 30 -53 36 -55 82 -81 179 -103 73 -16 74
-16 125 7 60 28 118 85 147 145 17 35 32 48 82 73 34 16 70 39 80 50 23 28 22
64 -3 89 -46 46 -109 8 -143 -88 -16 -43 -24 -53 -54 -63 -20 -6 -74 -47 -121
-91 -57 -53 -89 -75 -95 -69 -7 7 -4 63 8 170 16 142 15 222 -1 265 -3 7 14
11 52 11 48 0 59 4 79 27 50 58 59 236 16 297 -13 18 -37 34 -59 41 -42 11
-37 11 -76 0z m98 -53 c40 -40 43 -178 6 -248 -16 -30 -55 -41 -100 -29 -32 9
-41 17 -59 59 -25 60 -28 142 -5 180 36 61 116 80 158 38z m-754 -219 c0 -7
-13 -36 -30 -64 -22 -39 -41 -57 -75 -74 -25 -12 -49 -20 -52 -17 -7 8 13 65
37 105 28 46 120 84 120 50z m-210 -208 c0 -5 -13 -24 -28 -42 -20 -21 -34
-29 -46 -25 -16 6 -16 9 -2 29 24 34 76 60 76 38z m1244 -52 c13 -21 -19 -60
-65 -79 -37 -15 -43 -9 -27 27 28 66 68 89 92 52z m-575 -47 c8 -14 5 -23 -13
-40 -22 -21 -24 -21 -28 -4 -6 23 8 63 21 63 6 0 15 -8 20 -19z m411 -109 c0
-11 -28 -52 -59 -85 -30 -33 -91 -67 -121 -67 -16 0 -4 16 51 68 83 79 129
108 129 84z m-872 -348 c34 -10 27 -33 -25 -83 -46 -44 -233 -199 -261 -215
-19 -12 -6 36 34 120 64 135 159 202 252 178z m-265 -526 c19 -35 33 -66 31
-70 -8 -13 -58 3 -76 24 -24 28 -22 108 2 108 5 0 24 -28 43 -62z"/>
<path d="M2182 3188 l3 -223 30 -3 c148 -17 265 76 266 212 2 151 -80 236
-229 236 l-72 0 2 -222z m194 157 c78 -59 97 -189 41 -274 -34 -52 -78 -74
-147 -75 l-55 -1 -3 180 c-1 98 0 186 3 194 9 23 120 7 161 -24z"/>
<path d="M2557 3335 c-10 -118 2 -279 25 -315 50 -82 188 -77 245 9 22 32 23
44 23 207 0 148 -2 174 -15 174 -13 0 -15 -25 -15 -162 0 -179 -10 -220 -60
-246 -42 -22 -110 -9 -142 27 l-28 31 0 175 c0 140 -3 175 -14 175 -9 0 -15
-22 -19 -75z"/>
<path d="M3092 3188 l3 -223 86 0 c98 0 129 12 155 60 24 45 15 122 -19 150
l-24 21 25 29 c21 24 23 36 19 79 -3 40 -11 55 -36 78 -29 26 -37 28 -121 28
l-90 0 2 -222z m192 162 c31 -30 27 -87 -8 -117 -24 -21 -37 -23 -90 -21 l-61
3 -3 69 c-4 100 -4 100 75 93 48 -5 73 -12 87 -27z m7 -199 c32 -33 36 -56 15
-106 -12 -27 -23 -36 -56 -45 -23 -6 -60 -10 -83 -8 l-42 3 -3 79 c-2 44 -1
85 2 93 4 9 25 13 71 13 60 0 69 -3 96 -29z"/>
<path d="M3518 3390 c-72 -39 -109 -109 -109 -206 0 -168 130 -267 267 -205
77 35 119 119 112 225 -7 119 -75 197 -176 203 -43 2 -66 -2 -94 -17z m129
-21 c126 -48 152 -250 44 -342 -109 -91 -251 -2 -251 157 0 67 16 110 56 150
46 46 94 57 151 35z"/>
<path d="M3884 3376 c-29 -29 -34 -41 -34 -79 0 -64 26 -92 109 -117 81 -24
101 -43 101 -97 0 -57 -24 -84 -83 -90 -43 -5 -49 -3 -83 31 -20 20 -40 36
-45 36 -20 0 -7 -38 22 -66 27 -26 37 -29 94 -29 49 0 68 4 85 20 54 47 62
141 17 183 -12 11 -53 29 -90 42 -86 28 -105 53 -88 111 18 61 75 76 145 38
50 -26 60 -15 18 22 -27 24 -41 29 -83 29 -45 0 -55 -4 -85 -34z"/>
<path d="M4247 3380 c-139 -88 -129 -335 17 -401 54 -25 110 -24 163 2 l44 21
25 -23 c19 -18 27 -20 36 -11 10 10 6 18 -14 38 l-26 26 25 55 c68 148 -25
323 -172 323 -39 0 -62 -7 -98 -30z m156 -14 c43 -18 84 -67 98 -119 14 -51 6
-130 -16 -164 -15 -23 -18 -23 -34 -9 -23 21 -31 20 -31 -4 0 -11 5 -20 10
-20 6 0 10 -6 10 -13 0 -35 -108 -59 -157 -33 -108 55 -137 220 -56 317 47 55
112 72 176 45z"/>
<path d="M4618 3288 c-4 -238 4 -273 72 -310 41 -23 123 -20 163 7 49 32 57
68 57 254 0 142 -2 171 -14 171 -12 0 -15 -31 -18 -174 -3 -159 -5 -177 -24
-203 -44 -58 -140 -55 -181 6 -22 32 -23 44 -23 202 0 144 -2 169 -15 169 -12
0 -15 -21 -17 -122z"/>
<path d="M5009 3253 c-1 -231 1 -277 14 -285 20 -13 190 -5 195 10 3 9 -15 12
-65 12 -115 0 -113 -1 -113 96 l0 84 76 0 c66 0 75 2 72 18 -3 14 -16 18 -76
20 l-72 3 0 78 0 78 46 7 c26 3 66 6 90 6 32 0 44 4 44 15 0 12 -18 15 -105
15 l-105 0 -1 -157z"/>
<path d="M5255 3401 c-10 -17 33 -32 69 -26 19 4 36 3 39 -2 3 -4 6 -49 7 -98
4 -202 13 -316 23 -312 7 2 12 50 13 133 1 71 2 164 3 206 l1 77 48 -4 c49 -5
79 5 68 24 -9 14 -262 15 -271 2z"/>
<path d="M3600 1985 c-25 -4 -760 -29 -1182 -41 -196 -5 -228 -8 -228 -22 0
-13 34 -14 298 -8 163 4 491 14 727 24 614 24 1105 20 1619 -15 83 -5 98 -4
94 8 -6 17 -55 23 -304 39 -173 11 -973 22 -1024 15z"/>
<path d="M950 4440 c0 -5 5 -10 10 -10 6 0 10 5 10 10 0 6 -4 10 -10 10 -5 0
-10 -4 -10 -10z"/>
<path d="M569 4433 c-11 -3 -18 -19 -23 -50 -3 -26 -4 -48 -2 -50 6 -7 75 70
76 83 0 13 -27 22 -51 17z"/>
</g>
</svg>
